<svg width="212" height="61" viewBox="0 0 212 61" fill="none" xmlns="http://www.w3.org/2000/svg">
<g clip-path="url(#clip0_2059_778)">
<path d="M43.1646 54.293L43.7776 53.3734C45.3713 54.8185 47.45 55.6117 49.6013 55.5957C53.1262 55.5957 54.6588 54.0631 54.6588 52.1474C54.6588 46.86 43.701 50.0784 43.701 43.565C43.701 41.1129 45.6167 38.8907 49.9078 38.8907C51.7919 38.8839 53.6344 39.4446 55.1952 40.4999L54.7354 41.4961C53.3059 40.5434 51.6257 40.0367 49.9078 40.0401C46.5362 40.0401 45.0036 41.6493 45.0036 43.565C45.0036 48.8524 55.9615 45.7106 55.9615 52.0708C55.9615 54.5229 53.9692 56.6685 49.678 56.6685C46.9193 56.6685 44.4672 55.6723 43.1646 54.293Z" fill="#1f2937"/>
<path d="M73.5863 44.9434C73.5863 48.6215 70.9043 50.8437 66.5365 50.8437H61.5556V56.5142H60.2529V39.043H66.5365C70.9043 39.043 73.5863 41.1886 73.5863 44.9434ZM72.2836 44.9434C72.2836 41.8782 70.2912 40.1924 66.5365 40.1924H61.5556V49.6177H66.5365C70.2146 49.6177 72.2836 47.9319 72.2836 44.9434Z" fill="#1f2937"/>
<path d="M78.1074 39.043H79.4101V56.5142H78.1074V39.043Z" fill="#1f2937"/>
<path d="M85.4639 39.043H92.437C98.0309 39.043 101.786 42.7211 101.786 47.7786C101.786 52.8361 98.0309 56.5142 92.437 56.5142H85.4639V39.043ZM92.3604 55.3648C97.3413 55.3648 100.483 52.223 100.483 47.7786C100.483 43.3342 97.2646 40.1924 92.3604 40.1924H86.7665V55.4414H92.3604V55.3648Z" fill="#1f2937"/>
<path d="M118.261 55.3648V56.5142H106.153V39.043H117.877V40.1924H107.456V47.0889H116.805V48.2384H107.456V55.4414H118.261V55.3648Z" fill="#1f2937"/>
<path d="M135.119 56.5142L130.905 50.6905C130.347 50.7829 129.784 50.8342 129.219 50.8437H124.238V56.5142H122.936V39.043H129.219C133.664 39.043 136.269 41.2652 136.269 44.9434C136.31 46.1966 135.922 47.4263 135.17 48.4295C134.418 49.4326 133.346 50.1491 132.131 50.4606L136.499 56.5909H135.119V56.5142ZM129.219 49.6943C132.974 49.6943 134.966 47.9319 134.966 44.9434C134.966 41.9548 132.974 40.1924 129.219 40.1924H124.238V49.6943H129.219Z" fill="#1f2937"/>
<path d="M153.126 56.5142L148.912 50.6905C148.354 50.7829 147.791 50.8342 147.226 50.8437H142.245V56.5142H140.942V39.043H147.226C151.67 39.043 154.276 41.2652 154.276 44.9434C154.317 46.1966 153.929 47.4263 153.177 48.4295C152.424 49.4326 151.352 50.1491 150.138 50.4606L154.506 56.5909H153.126V56.5142ZM147.303 49.6943C151.057 49.6943 153.05 47.9319 153.05 44.9434C153.05 41.9548 151.057 40.1924 147.303 40.1924H142.322V49.6943H147.303Z" fill="#1f2937"/>
<path d="M157.341 47.7795C157.341 42.722 161.249 38.8906 166.46 38.8906C171.67 38.8906 175.578 42.6454 175.578 47.7795C175.578 52.9136 171.67 56.6684 166.46 56.6684C161.249 56.6684 157.341 52.837 157.341 47.7795ZM174.276 47.7795C174.291 46.2305 173.845 44.7118 172.996 43.4164C172.146 42.1211 170.931 41.1073 169.504 40.504C168.077 39.9006 166.503 39.7349 164.982 40.0278C163.461 40.3206 162.061 41.0589 160.96 42.1489C159.86 43.2389 159.108 44.6314 158.8 46.1496C158.492 47.6679 158.642 49.2433 159.231 50.676C159.821 52.1087 160.822 53.3339 162.109 54.1962C163.396 55.0585 164.91 55.5189 166.46 55.519C167.488 55.5493 168.511 55.3704 169.468 54.9931C170.425 54.6159 171.296 54.0482 172.026 53.3245C172.757 52.6007 173.334 51.736 173.72 50.7829C174.107 49.8297 174.296 48.8079 174.276 47.7795Z" fill="#1f2937"/>
<path d="M177.954 47.7803C177.954 42.6462 181.862 38.8914 187.073 38.8914C188.222 38.8387 189.369 39.0299 190.439 39.4526C191.509 39.8752 192.477 40.5197 193.28 41.3435L192.513 42.1864C191.803 41.5009 190.962 40.9646 190.041 40.6093C189.12 40.2539 188.136 40.0867 187.15 40.1174C185.097 40.1174 183.128 40.9328 181.677 42.3843C180.225 43.8357 179.41 45.8042 179.41 47.8569C179.41 49.9095 180.225 51.8781 181.677 53.3295C183.128 54.7809 185.097 55.5963 187.15 55.5963C188.137 55.6341 189.122 55.4702 190.045 55.1144C190.967 54.7587 191.807 54.2187 192.513 53.5274L193.28 54.3703C192.467 55.18 191.497 55.8151 190.429 56.2368C189.362 56.6584 188.22 56.8577 187.073 56.8224C181.786 56.6691 177.954 52.9143 177.954 47.7803Z" fill="#1f2937"/>
<path d="M202.782 47.9319L198.873 51.9932V56.5909H197.571V39.043H198.873V50.3073L209.831 39.043H211.364L203.624 47.0123L211.824 56.5142H210.291L202.782 47.9319Z" fill="#1f2937"/>
<path d="M14.1227 60.5011L16.1916 17.9724V17.6659C16.178 17.5148 16.1067 17.3748 15.9925 17.2749C15.8784 17.175 15.7302 17.1229 15.5786 17.1295H2.85831C2.70677 17.1229 2.55854 17.175 2.44439 17.2749C2.33023 17.3748 2.25893 17.5148 2.24528 17.6659L0.176319 59.8881C0.175289 59.9689 0.190443 60.049 0.220886 60.1239C0.251329 60.1987 0.296445 60.2667 0.353577 60.3238C0.410708 60.381 0.478697 60.4261 0.553538 60.4565C0.628379 60.487 0.708556 60.5021 0.789346 60.5011H14.1227Z" fill="#3683CC"/>
<path d="M30.5978 0.500538H19.4101C19.2476 0.480998 19.0841 0.526391 18.9549 0.626843C18.8258 0.727294 18.7415 0.874678 18.7204 1.03694L15.7319 60.5005H33.5097C33.6722 60.5201 33.8357 60.4747 33.9649 60.3742C34.0941 60.2738 34.1783 60.1264 34.1994 59.9641L31.2875 1.03694C31.2664 0.874678 31.1822 0.727294 31.053 0.626843C30.9239 0.526391 30.7603 0.480998 30.5978 0.500538Z" fill="#C94C37"/>
</g>
<defs>
<clipPath id="clip0_2059_778">
<rect width="211.647" height="60" fill="white" transform="translate(0.17627 0.5)"/>
</clipPath>
</defs>
</svg>

