<?xml version="1.0" encoding="utf-8"?>
<!-- Generator: Adobe Illustrator 28.2.0, SVG Export Plug-In . SVG Version: 6.00 Build 0)  -->
<svg version="1.1" id="Layer_1" xmlns="http://www.w3.org/2000/svg"
	xmlns:xlink="http://www.w3.org/1999/xlink" x="0px" y="0px"
	viewBox="0 0 150 100" style="enable-background:new 0 0 150 100;" xml:space="preserve">
<style type="text/css">
	.st0{fill:#FFFFFF;}
	.st1{fill:#3D6388;}
	.st2{fill:#C94C37;}
</style>
<g>
	<g>
		<g>
			<g>
				<g>
					<path class="st0" d="M3.7,119.5l0.8-1.2c1.6,1.6,4.5,2.9,7.6,2.9c4.6,0,6.6-2,6.6-4.5c0-6.9-14.3-2.7-14.3-11.2
						c0-3.2,2.5-6.1,8.1-6.1c2.5,0,5.1,0.8,6.9,2.1l-0.6,1.3c-1.9-1.3-4.2-1.9-6.3-1.9c-4.4,0-6.4,2.1-6.4,4.6
						c0,6.9,14.3,2.8,14.3,11.1c0,3.2-2.6,6-8.2,6C8.6,122.6,5.3,121.3,3.7,119.5z"/>
					<path class="st0" d="M43.3,107.3c0,4.8-3.5,7.7-9.2,7.7h-6.5v7.5h-1.7V99.6h8.2C39.9,99.6,43.3,102.4,43.3,107.3z M41.6,107.3
						c0-4-2.6-6.2-7.5-6.2h-6.5v12.4h6.5C39,113.5,41.6,111.2,41.6,107.3z"/>
					<path class="st0" d="M49.3,99.6H51v22.9h-1.7V99.6z"/>
					<path class="st0" d="M58.9,99.6H68c7.3,0,12.2,4.8,12.2,11.4c0,6.7-4.9,11.4-12.2,11.4h-9.1V99.6z M67.8,120.9
						c6.5,0,10.6-4.1,10.6-9.9s-4.2-9.9-10.6-9.9h-7.3V121L67.8,120.9L67.8,120.9z"/>
					<path class="st0" d="M101.7,120.9v1.5H85.9V99.6h15.3v1.5H87.6v9h12.2v1.5H87.6v9.4L101.7,120.9L101.7,120.9z"/>
					<path class="st0" d="M123.7,122.5l-5.5-7.7c-0.7,0.1-1.4,0.2-2.2,0.2h-6.5v7.5h-1.7V99.6h8.2c5.8,0,9.2,2.9,9.2,7.7
						c0,3.6-2,6.1-5.4,7.2l5.7,8C125.5,122.5,123.7,122.5,123.7,122.5z M116,113.5c4.9,0,7.5-2.3,7.5-6.2c0-4-2.6-6.2-7.5-6.2h-6.5
						v12.4C109.5,113.5,116,113.5,116,113.5z"/>
					<path class="st0" d="M147.2,122.5l-5.5-7.7c-0.7,0.1-1.4,0.2-2.2,0.2H133v7.5h-1.7V99.6h8.2c5.8,0,9.2,2.9,9.2,7.7
						c0,3.6-2,6.1-5.4,7.2l5.7,8C149,122.5,147.2,122.5,147.2,122.5z M139.5,113.5c4.9,0,7.5-2.3,7.5-6.2c0-4-2.6-6.2-7.5-6.2H133
						v12.4C133,113.5,139.5,113.5,139.5,113.5z"/>
					<path class="st0" d="M152.7,111c0-6.6,5.1-11.6,11.9-11.6c6.8,0,11.9,4.9,11.9,11.6s-5.1,11.6-11.9,11.6S152.7,117.6,152.7,111
						z M174.8,111c0-5.8-4.4-10.1-10.2-10.1c-5.9,0-10.2,4.3-10.2,10.1c0,5.8,4.4,10.1,10.2,10.1C170.4,121.1,174.8,116.8,174.8,111
						z"/>
					<path class="st0" d="M179.6,111c0-6.7,5.1-11.6,11.9-11.6c3.2,0,6.1,1,8.1,3.2l-1,1.1c-2-1.9-4.3-2.7-7-2.7
						c-5.9,0-10.3,4.3-10.3,10.1c0,5.8,4.4,10.1,10.3,10.1c2.7,0,5.1-0.8,7-2.7l1,1.1c-2,2.1-4.9,3.2-8.1,3.2
						C184.6,122.6,179.6,117.7,179.6,111z"/>
					<path class="st0" d="M212,111.2l-5.1,5.3v6h-1.7V99.6h1.7v14.7l14.3-14.7h2L213.1,110l10.8,12.5h-2L212,111.2z"/>
				</g>
			</g>
		</g>
	</g>
	<g>
		<path class="st1" d="M109,88l2.8-55.5v-0.4c0-0.4-0.4-0.7-0.8-0.7H94.4c-0.4,0-0.8,0.3-0.8,0.7l-2.7,55.1c0,0.4,0.3,0.8,0.8,0.8
			H109z"/>
		<path class="st2" d="M130.5,9.7h-14.6c-0.5,0-0.9,0.3-0.9,0.7L111.1,88h23.2c0.5,0,0.9-0.3,0.9-0.7l-3.8-76.9
			C131.4,10,131,9.7,130.5,9.7"/>
	</g>
</g>
</svg>